<?xml version="1.0" encoding="UTF-8"?>
<svg xmlns="http://www.w3.org/2000/svg" xmlns:xlink="http://www.w3.org/1999/xlink" width="546.68pt" height="159.82pt" viewBox="0 0 546.68 159.82" version="1.1">
<defs>
<clipPath id="clip1">
  <path d="M 280 136 L 296 136 L 296 159.820313 L 280 159.820313 Z M 280 136 "/>
</clipPath>
<clipPath id="clip2">
  <path d="M 532 21 L 546.679688 21 L 546.679688 37 L 532 37 Z M 532 21 "/>
</clipPath>
</defs>
<g id="surface1">
<path style=" stroke:none;fill-rule:nonzero;fill:rgb(89.399719%,25.498962%,54.899597%);fill-opacity:1;" d="M 250.429688 146.34375 C 252.128906 146.265625 253.558594 145.808594 254.761719 144.976563 C 255.96875 144.144531 256.566406 143.195313 256.566406 142.105469 C 256.566406 141.128906 256.105469 140.652344 255.191406 140.652344 C 254.089844 140.652344 253.085938 141.199219 252.171875 142.308594 C 251.242188 143.421875 250.660156 144.769531 250.429688 146.34375 M 250.339844 147.445313 C 250.339844 149.675781 251.332031 150.789063 253.328125 150.789063 C 255.054688 150.789063 256.960938 150.007813 259.046875 148.449219 C 261.125 146.890625 262.996094 144.828125 264.671875 142.285156 L 265.699219 142.820313 C 264.125 145.613281 262.082031 147.921875 259.550781 149.75 C 257.035156 151.578125 254.644531 152.496094 252.398438 152.496094 C 250.949219 152.496094 249.808594 152.050781 248.96875 151.171875 C 248.128906 150.285156 247.707031 149.070313 247.707031 147.539063 C 247.707031 145.328125 248.46875 143.4375 249.992188 141.871094 C 251.519531 140.296875 253.347656 139.515625 255.496094 139.515625 C 256.53125 139.515625 257.355469 139.757813 257.976563 140.25 C 258.609375 140.746094 258.914063 141.414063 258.914063 142.238281 C 258.914063 143.605469 258.039063 144.816406 256.320313 145.871094 C 254.582031 146.921875 252.601563 147.445313 250.339844 147.445313 "/>
<path style=" stroke:none;fill-rule:nonzero;fill:rgb(89.399719%,25.498962%,54.899597%);fill-opacity:1;" d="M 267.890625 149.210938 C 265.527344 150.414063 264.339844 151.351563 264.339844 152.011719 C 264.339844 152.632813 264.8125 152.953125 265.773438 152.953125 C 266.476563 152.953125 267.050781 152.726563 267.492188 152.265625 C 267.9375 151.816406 268.164063 151.226563 268.164063 150.515625 C 268.164063 150.082031 268.074219 149.652344 267.890625 149.210938 M 269.933594 148.179688 C 270.210938 148.761719 270.347656 149.308594 270.347656 149.839844 C 270.347656 150.996094 269.828125 152.023438 268.804688 152.882813 C 267.769531 153.75 266.566406 154.1875 265.191406 154.1875 C 264.367188 154.1875 263.683594 153.980469 263.121094 153.589844 C 262.539063 153.1875 262.246094 152.71875 262.246094 152.164063 C 262.246094 151.566406 262.648438 150.964844 263.441406 150.355469 C 264.214844 149.742188 265.527344 149.015625 267.355469 148.179688 L 266.398438 146.699219 C 265.222656 144.921875 264.644531 143.515625 264.644531 142.507813 C 264.644531 141.0625 265.527344 139.898438 267.3125 139.007813 C 268.394531 139.402344 268.941406 139.910156 268.941406 140.511719 C 268.941406 141.363281 268.242188 142.183594 266.871094 142.964844 L 268.230469 145.363281 L 269.308594 147.222656 C 270.847656 146.347656 271.992188 145.605469 272.769531 144.980469 C 273.566406 144.359375 274.542969 143.410156 275.726563 142.113281 L 276.703125 142.667969 C 274.964844 144.863281 272.710938 146.699219 269.933594 148.179688 "/>
<g clip-path="url(#clip1)" clip-rule="nonzero">
<path style=" stroke:none;fill-rule:nonzero;fill:rgb(89.399719%,25.498962%,54.899597%);fill-opacity:1;" d="M 285.179688 149.722656 C 286.003906 150.625 286.996094 151.074219 288.167969 151.074219 C 289.589844 151.074219 290.792969 150.511719 291.785156 149.382813 C 292.777344 148.253906 293.273438 146.882813 293.273438 145.269531 C 293.273438 144.09375 293.003906 143.152344 292.4375 142.433594 C 291.875 141.703125 291.140625 141.34375 290.246094 141.34375 C 289.117188 141.34375 287.898438 141.949219 286.585938 143.148438 Z M 284.8125 151.496094 L 283.933594 155.726563 C 283.730469 156.679688 283.640625 157.511719 283.640625 158.21875 C 283.640625 158.667969 283.746094 159.078125 283.945313 159.445313 C 283.136719 159.691406 282.527344 159.820313 282.101563 159.820313 C 281.429688 159.820313 281.097656 159.460938 281.097656 158.746094 C 281.097656 158.191406 281.230469 157.277344 281.492188 156.015625 L 285.015625 139.230469 C 284.3125 139.367188 283.730469 139.429688 283.246094 139.429688 C 282.5625 139.429688 282.039063 139.28125 281.707031 138.953125 C 281.367188 138.640625 281.097656 138.058594 280.898438 137.1875 C 281.492188 137.566406 282.371094 137.753906 283.578125 137.753906 C 285.0625 137.753906 286.492188 137.492188 287.863281 136.96875 L 286.933594 141.386719 C 288.304688 140.136719 289.726563 139.515625 291.175781 139.515625 C 292.457031 139.515625 293.523438 139.972656 294.378906 140.894531 C 295.214844 141.808594 295.636719 142.953125 295.636719 144.324219 C 295.636719 146.472656 294.863281 148.316406 293.308594 149.875 C 291.738281 151.425781 289.878906 152.203125 287.730469 152.203125 C 286.554688 152.203125 285.597656 151.96875 284.8125 151.496094 "/>
</g>
<path style=" stroke:none;fill-rule:nonzero;fill:rgb(89.399719%,25.498962%,54.899597%);fill-opacity:1;" d="M 308.925781 142.488281 C 307.246094 141.441406 305.824219 140.921875 304.710938 140.921875 C 303.511719 140.921875 302.457031 141.617188 301.570313 143.019531 C 300.691406 144.414063 300.246094 146.078125 300.246094 148 C 300.246094 149.535156 300.765625 150.304688 301.835938 150.304688 C 302.976563 150.304688 305.1875 147.914063 308.433594 143.125 C 308.46875 143.0625 308.632813 142.847656 308.925781 142.488281 M 308.355469 145.226563 C 307.320313 147.242188 306.054688 148.960938 304.558594 150.367188 C 303.054688 151.789063 301.734375 152.496094 300.613281 152.496094 C 299.753906 152.496094 299.070313 152.128906 298.570313 151.414063 C 298.050781 150.6875 297.808594 149.738281 297.808594 148.53125 C 297.808594 146.15625 298.570313 144.046875 300.09375 142.230469 C 301.617188 140.421875 303.371094 139.515625 305.367188 139.515625 C 306.589844 139.515625 307.898438 139.867188 309.320313 140.589844 C 309.53125 139.875 310.386719 139.519531 311.875 139.519531 C 311.972656 139.519531 312.125 139.527344 312.355469 139.535156 C 311.898438 140.203125 311.527344 141.109375 311.300781 142.257813 L 311.085938 143.222656 C 310.859375 144.316406 310.753906 145.578125 310.753906 147.019531 C 310.753906 148.699219 311.148438 149.53125 311.972656 149.53125 C 312.839844 149.53125 314.03125 148.84375 315.535156 147.464844 C 317.03125 146.09375 318.507813 144.339844 319.976563 142.210938 L 320.921875 142.828125 C 319.421875 145.34375 317.734375 147.441406 315.8125 149.128906 C 313.90625 150.804688 312.257813 151.640625 310.886719 151.640625 C 309.152344 151.640625 308.292969 150.269531 308.292969 147.527344 C 308.292969 146.957031 308.3125 146.1875 308.355469 145.226563 "/>
<path style=" stroke:none;fill-rule:nonzero;fill:rgb(89.399719%,25.498962%,54.899597%);fill-opacity:1;" d="M 320.921875 152.128906 C 320.359375 152.363281 319.914063 152.496094 319.597656 152.496094 C 318.773438 152.496094 318.355469 152.144531 318.355469 151.457031 C 318.355469 151.117188 318.507813 150.234375 318.800781 148.84375 L 319.394531 146 C 319.761719 144.3125 319.957031 143.050781 319.957031 142.230469 C 319.957031 141.796875 319.824219 141.429688 319.546875 141.121094 C 320.386719 140.847656 321.070313 140.707031 321.605469 140.707031 C 322.167969 140.707031 322.460938 141.054688 322.460938 141.730469 C 322.460938 142.148438 322.265625 143.257813 321.847656 145.039063 L 321.175781 148.363281 C 322.6875 145.566406 324.210938 143.394531 325.75 141.835938 C 327.296875 140.289063 328.683594 139.515625 329.929688 139.515625 C 330.371094 139.515625 330.769531 139.632813 331.085938 139.867188 C 331.414063 140.117188 331.566406 140.402344 331.566406 140.746094 C 331.566406 141.28125 330.953125 141.988281 329.734375 142.875 C 329.429688 142.273438 329 141.976563 328.441406 141.976563 C 327.414063 141.976563 326.117188 142.992188 324.53125 145.054688 C 323.5625 146.332031 322.699219 147.664063 321.988281 149.015625 C 321.253906 150.382813 320.90625 151.351563 320.90625 151.933594 "/>
<path style=" stroke:none;fill-rule:nonzero;fill:rgb(89.399719%,25.498962%,54.899597%);fill-opacity:1;" d="M 340.867188 147.679688 C 341.09375 148.054688 341.199219 148.378906 341.199219 148.664063 C 341.199219 149.40625 340.527344 150.230469 339.203125 151.136719 C 337.871094 152.039063 336.652344 152.496094 335.570313 152.496094 C 334.59375 152.496094 333.816406 152.085938 333.207031 151.269531 C 332.609375 150.449219 332.304688 149.398438 332.304688 148.109375 C 332.304688 146.679688 332.710938 144.644531 333.5 141.988281 L 334.058594 140.070313 L 332.023438 140.070313 C 331.164063 140.070313 330.496094 140.195313 329.976563 140.421875 C 330.449219 139.613281 330.828125 139.105469 331.136719 138.90625 C 331.441406 138.699219 331.960938 138.601563 332.6875 138.601563 L 334.503906 138.601563 L 334.746094 137.804688 C 335.113281 136.632813 335.554688 135.820313 336.078125 135.375 C 336.597656 134.941406 337.359375 134.71875 338.390625 134.71875 C 338.503906 134.71875 338.695313 134.734375 338.972656 134.746094 C 338.347656 135.507813 337.691406 136.789063 337.007813 138.601563 L 343.382813 138.601563 C 344.488281 138.601563 345.34375 138.460938 345.925781 138.183594 C 345.722656 138.960938 345.46875 139.472656 345.136719 139.714844 C 344.796875 139.949219 344.171875 140.070313 343.269531 140.070313 L 336.5 140.070313 C 336.425781 140.324219 336.347656 140.511719 336.320313 140.628906 C 335.34375 143.777344 334.855469 146.148438 334.855469 147.746094 C 334.855469 149.515625 335.527344 150.394531 336.867188 150.394531 C 337.554688 150.394531 338.316406 150.125 339.140625 149.570313 C 339.949219 149.007813 340.527344 148.378906 340.867188 147.679688 "/>
<path style=" stroke:none;fill-rule:nonzero;fill:rgb(89.399719%,25.498962%,54.899597%);fill-opacity:1;" d="M 345.53125 146.34375 C 347.21875 146.265625 348.65625 145.808594 349.859375 144.976563 C 351.058594 144.144531 351.65625 143.195313 351.65625 142.105469 C 351.65625 141.128906 351.199219 140.652344 350.285156 140.652344 C 349.1875 140.652344 348.183594 141.199219 347.269531 142.308594 C 346.335938 143.421875 345.757813 144.769531 345.53125 146.34375 M 345.4375 147.445313 C 345.4375 149.675781 346.429688 150.789063 348.425781 150.789063 C 350.144531 150.789063 352.050781 150.007813 354.144531 148.449219 C 356.21875 146.890625 358.09375 144.828125 359.773438 142.285156 L 360.789063 142.820313 C 359.21875 145.613281 357.179688 147.921875 354.644531 149.75 C 352.148438 151.578125 349.75 152.496094 347.496094 152.496094 C 346.050781 152.496094 344.90625 152.050781 344.066406 151.171875 C 343.230469 150.285156 342.800781 149.070313 342.800781 147.539063 C 342.800781 145.328125 343.5625 143.4375 345.089844 141.871094 C 346.609375 140.296875 348.441406 139.515625 350.589844 139.515625 C 351.628906 139.515625 352.453125 139.757813 353.078125 140.25 C 353.699219 140.746094 354.007813 141.414063 354.007813 142.238281 C 354.007813 143.605469 353.140625 144.816406 351.414063 145.871094 C 349.675781 146.921875 347.691406 147.445313 345.4375 147.445313 "/>
<path style=" stroke:none;fill-rule:nonzero;fill:rgb(89.399719%,25.498962%,54.899597%);fill-opacity:1;" d="M 377.4375 142.488281 C 375.761719 141.441406 374.375 140.921875 373.28125 140.921875 C 372.074219 140.921875 371.019531 141.621094 370.15625 143.027344 C 369.265625 144.429688 368.824219 146.085938 368.824219 148 C 368.824219 149.535156 369.355469 150.304688 370.421875 150.304688 C 371.554688 150.304688 373.75 147.914063 376.980469 143.125 C 377.042969 143.042969 377.195313 142.828125 377.4375 142.488281 M 376.800781 145.507813 C 375.550781 147.664063 374.234375 149.355469 372.863281 150.609375 C 371.492188 151.867188 370.269531 152.496094 369.191406 152.496094 C 368.339844 152.496094 367.652344 152.132813 367.144531 151.421875 C 366.648438 150.714844 366.382813 149.757813 366.382813 148.558594 C 366.382813 146.15625 367.144531 144.039063 368.65625 142.222656 C 370.167969 140.421875 371.921875 139.515625 373.914063 139.515625 C 375.121094 139.515625 376.417969 139.875 377.839844 140.601563 L 379.136719 134.441406 C 378.414063 134.582031 377.839844 134.65625 377.359375 134.65625 C 376.664063 134.65625 376.140625 134.496094 375.824219 134.175781 C 375.476563 133.851563 375.214844 133.261719 375.019531 132.382813 C 375.59375 132.765625 376.480469 132.953125 377.6875 132.953125 C 379.164063 132.953125 380.597656 132.6875 381.984375 132.167969 L 379.34375 144.707031 C 379.058594 146.105469 378.90625 147.296875 378.90625 148.289063 C 378.90625 149.597656 379.300781 150.257813 380.089844 150.257813 C 380.855469 150.257813 382.148438 149.390625 383.9375 147.679688 C 385.734375 145.960938 387.230469 144.171875 388.4375 142.292969 L 389.40625 142.890625 C 387.992188 145.378906 386.203125 147.59375 384.058594 149.550781 C 381.921875 151.511719 380.214844 152.496094 378.933594 152.496094 C 377.320313 152.496094 376.496094 151.261719 376.496094 148.789063 C 376.496094 147.769531 376.601563 146.679688 376.800781 145.507813 "/>
<path style=" stroke:none;fill-rule:nonzero;fill:rgb(89.399719%,25.498962%,54.899597%);fill-opacity:1;" d="M 389.011719 146.34375 C 390.6875 146.265625 392.136719 145.808594 393.328125 144.976563 C 394.535156 144.144531 395.125 143.195313 395.125 142.105469 C 395.125 141.128906 394.6875 140.652344 393.773438 140.652344 C 392.65625 140.652344 391.652344 141.199219 390.738281 142.308594 C 389.808594 143.421875 389.226563 144.769531 389.011719 146.34375 M 388.90625 147.445313 C 388.90625 149.675781 389.910156 150.789063 391.894531 150.789063 C 393.636719 150.789063 395.527344 150.007813 397.613281 148.449219 C 399.683594 146.890625 401.574219 144.828125 403.242188 142.285156 L 404.273438 142.820313 C 402.691406 145.613281 400.648438 147.921875 398.132813 149.75 C 395.617188 151.578125 393.21875 152.496094 390.964844 152.496094 C 389.519531 152.496094 388.375 152.050781 387.535156 151.171875 C 386.699219 150.285156 386.28125 149.070313 386.28125 147.539063 C 386.28125 145.328125 387.042969 143.4375 388.554688 141.871094 C 390.078125 140.296875 391.90625 139.515625 394.058594 139.515625 C 395.097656 139.515625 395.921875 139.757813 396.546875 140.25 C 397.167969 140.746094 397.472656 141.414063 397.472656 142.238281 C 397.472656 143.605469 396.621094 144.816406 394.882813 145.871094 C 393.144531 146.921875 391.160156 147.445313 388.90625 147.445313 "/>
<path style=" stroke:none;fill-rule:nonzero;fill:rgb(89.399719%,25.498962%,54.899597%);fill-opacity:1;" d="M 414.09375 148.183594 C 416.988281 142.40625 419.554688 139.515625 421.765625 139.515625 C 422.742188 139.515625 423.214844 140.171875 423.214844 141.511719 C 423.214844 142.078125 423.011719 143.363281 422.589844 145.363281 L 421.867188 148.828125 C 423.277344 146.023438 424.738281 143.761719 426.277344 142.066406 C 427.800781 140.367188 429.113281 139.515625 430.226563 139.515625 C 431.445313 139.515625 432.058594 140.195313 432.058594 141.542969 C 432.058594 142.039063 431.867188 143.148438 431.507813 144.894531 L 431.140625 146.679688 C 430.914063 147.746094 430.800781 148.542969 430.800781 149.066406 C 430.800781 149.980469 431.140625 150.4375 431.828125 150.4375 C 433.367188 150.4375 435.730469 147.710938 438.933594 142.289063 L 439.9375 142.828125 C 436.464844 149.273438 433.414063 152.496094 430.820313 152.496094 C 429.144531 152.496094 428.320313 151.457031 428.320313 149.398438 C 428.320313 148.710938 428.472656 147.617188 428.808594 146.097656 L 429.144531 144.519531 C 429.355469 143.453125 429.480469 142.792969 429.480469 142.53125 C 429.480469 142.203125 429.296875 142.039063 428.945313 142.039063 C 428.078125 142.039063 426.519531 143.671875 424.28125 146.945313 C 422.25 149.921875 421.230469 151.628906 421.230469 152.050781 C 421.230469 152.101563 421.246094 152.183594 421.273438 152.292969 C 421.167969 152.324219 420.96875 152.363281 420.695313 152.441406 C 420.570313 152.480469 420.394531 152.5 420.152344 152.5 C 419.402344 152.5 419.019531 152.167969 419.019531 151.492188 C 419.019531 151.285156 419.160156 150.660156 419.402344 149.621094 C 419.476563 149.246094 419.570313 148.851563 419.644531 148.425781 L 420.164063 146 C 420.53125 144.261719 420.710938 143.207031 420.710938 142.863281 C 420.710938 142.351563 420.511719 142.101563 420.128906 142.101563 C 419.261719 142.101563 417.980469 143.570313 416.289063 146.523438 C 414.613281 149.441406 413.773438 151.1875 413.773438 151.746094 C 413.773438 151.90625 413.835938 152.058594 413.953125 152.210938 C 413.519531 152.398438 413.113281 152.496094 412.753906 152.496094 C 411.917969 152.496094 411.5 152.066406 411.5 151.210938 C 411.5 151.109375 411.625 149.996094 411.855469 147.878906 L 412.125 145.453125 C 412.234375 144.59375 412.277344 143.804688 412.277344 143.078125 C 412.277344 142.164063 412.082031 141.496094 411.6875 141.066406 C 412.617188 140.746094 413.289063 140.589844 413.671875 140.589844 C 414.371094 140.589844 414.738281 140.984375 414.738281 141.773438 C 414.738281 142.058594 414.628906 143.105469 414.445313 144.917969 "/>
<path style=" stroke:none;fill-rule:nonzero;fill:rgb(89.399719%,25.498962%,54.899597%);fill-opacity:1;" d="M 440.59375 137.089844 L 440.761719 137.105469 C 441.296875 137.082031 442.070313 136.816406 443.074219 136.324219 C 444.101563 135.835938 444.878906 135.335938 445.460938 134.820313 C 445.09375 135.875 444.46875 136.765625 443.570313 137.464844 C 442.210938 138.550781 441.28125 139.09375 440.808594 139.09375 C 440.484375 139.09375 440.316406 138.902344 440.316406 138.53125 C 440.316406 137.996094 440.40625 137.511719 440.59375 137.089844 M 451.308594 142.847656 C 449.5 145.871094 447.671875 148.234375 445.808594 149.933594 C 443.964844 151.644531 442.285156 152.496094 440.808594 152.496094 C 439.90625 152.496094 439.1875 152.210938 438.640625 151.65625 C 438.09375 151.101563 437.816406 150.367188 437.816406 149.460938 C 437.816406 149.121094 437.890625 148.566406 438.046875 147.824219 L 438.320313 146.5625 C 438.71875 144.746094 438.917969 143.480469 438.917969 142.742188 C 438.917969 142.308594 438.765625 141.960938 438.488281 141.683594 C 439.539063 141.453125 440.199219 141.34375 440.457031 141.34375 C 441.054688 141.34375 441.359375 141.738281 441.359375 142.527344 C 441.359375 143.117188 441.234375 143.957031 441.003906 145.054688 L 440.53125 147.28125 C 440.304688 148.359375 440.179688 149.050781 440.179688 149.371094 C 440.179688 150.3125 440.609375 150.789063 441.449219 150.789063 C 442.453125 150.789063 443.796875 149.984375 445.472656 148.386719 C 447.136719 146.777344 448.753906 144.746094 450.320313 142.285156 "/>
<path style=" stroke:none;fill-rule:nonzero;fill:rgb(89.399719%,25.498962%,54.899597%);fill-opacity:1;" d="M 460.582031 152.511719 C 460.761719 151.84375 460.859375 151.269531 460.859375 150.769531 C 460.859375 148.898438 460.429688 146.8125 459.589844 144.539063 C 458.738281 142.261719 457.761719 140.53125 456.617188 139.375 C 457.316406 139.035156 457.941406 138.871094 458.496094 138.871094 C 459.375 138.871094 460.277344 139.972656 461.179688 142.175781 C 462.09375 144.367188 462.730469 147.027344 463.125 150.148438 C 464.53125 148.453125 465.6875 146.707031 466.605469 144.90625 C 467.519531 143.113281 468.039063 141.566406 468.15625 140.25 C 469.363281 140.707031 469.960938 141.234375 469.960938 141.808594 C 469.960938 142.335938 469.398438 143.5 468.234375 145.328125 C 467.089844 147.160156 465.84375 148.898438 464.484375 150.527344 C 463.832031 151.324219 463.277344 151.824219 462.820313 152.050781 C 462.382813 152.28125 461.636719 152.433594 460.582031 152.511719 "/>
<path style=" stroke:none;fill-rule:nonzero;fill:rgb(89.399719%,25.498962%,54.899597%);fill-opacity:1;" d="M 475.054688 137.089844 L 475.203125 137.105469 C 475.753906 137.082031 476.53125 136.816406 477.535156 136.324219 C 478.546875 135.835938 479.335938 135.335938 479.898438 134.820313 C 479.550781 135.875 478.925781 136.765625 478.027344 137.464844 C 476.65625 138.550781 475.738281 139.09375 475.246094 139.09375 C 474.929688 139.09375 474.777344 138.902344 474.777344 138.53125 C 474.777344 137.996094 474.851563 137.511719 475.054688 137.089844 M 485.769531 142.847656 C 483.960938 145.871094 482.128906 148.234375 480.265625 149.933594 C 478.40625 151.644531 476.742188 152.496094 475.269531 152.496094 C 474.367188 152.496094 473.632813 152.210938 473.085938 151.65625 C 472.535156 151.101563 472.261719 150.367188 472.261719 149.460938 C 472.261719 149.121094 472.335938 148.566406 472.503906 147.824219 L 472.765625 146.5625 C 473.160156 144.746094 473.363281 143.480469 473.363281 142.742188 C 473.363281 142.308594 473.222656 141.960938 472.945313 141.683594 C 473.984375 141.453125 474.65625 141.34375 474.914063 141.34375 C 475.511719 141.34375 475.800781 141.738281 475.800781 142.527344 C 475.800781 143.117188 475.691406 143.957031 475.449219 145.054688 L 474.988281 147.28125 C 474.746094 148.359375 474.636719 149.050781 474.636719 149.371094 C 474.636719 150.3125 475.054688 150.789063 475.90625 150.789063 C 476.910156 150.789063 478.242188 149.984375 479.917969 148.386719 C 481.574219 146.777344 483.210938 144.746094 484.761719 142.285156 "/>
<path style=" stroke:none;fill-rule:nonzero;fill:rgb(89.399719%,25.498962%,54.899597%);fill-opacity:1;" d="M 493.667969 142.488281 C 492.003906 141.441406 490.605469 140.921875 489.503906 140.921875 C 488.304688 140.921875 487.25 141.621094 486.378906 143.027344 C 485.496094 144.429688 485.054688 146.085938 485.054688 148 C 485.054688 149.535156 485.585938 150.304688 486.652344 150.304688 C 487.785156 150.304688 489.980469 147.914063 493.226563 143.125 C 493.273438 143.042969 493.425781 142.828125 493.667969 142.488281 M 493.03125 145.507813 C 491.773438 147.664063 490.464844 149.355469 489.09375 150.609375 C 487.722656 151.867188 486.503906 152.496094 485.433594 152.496094 C 484.566406 152.496094 483.882813 152.132813 483.375 151.421875 C 482.871094 150.714844 482.613281 149.757813 482.613281 148.558594 C 482.613281 146.15625 483.375 144.039063 484.886719 142.222656 C 486.398438 140.421875 488.152344 139.515625 490.148438 139.515625 C 491.355469 139.515625 492.648438 139.875 494.0625 140.601563 L 495.359375 134.441406 C 494.644531 134.582031 494.0625 134.65625 493.59375 134.65625 C 492.890625 134.65625 492.371094 134.496094 492.054688 134.175781 C 491.714844 133.851563 491.441406 133.261719 491.242188 132.382813 C 491.824219 132.765625 492.703125 132.953125 493.910156 132.953125 C 495.394531 132.953125 496.820313 132.6875 498.214844 132.167969 L 495.589844 144.707031 C 495.28125 146.105469 495.144531 147.296875 495.144531 148.289063 C 495.144531 149.597656 495.523438 150.257813 496.320313 150.257813 C 497.097656 150.257813 498.382813 149.390625 500.160156 147.679688 C 501.964844 145.960938 503.453125 144.171875 504.660156 142.292969 L 505.648438 142.890625 C 504.214844 145.378906 502.433594 147.59375 500.285156 149.550781 C 498.152344 151.511719 496.441406 152.496094 495.164063 152.496094 C 493.542969 152.496094 492.726563 151.261719 492.726563 148.789063 C 492.726563 147.769531 492.828125 146.679688 493.03125 145.507813 "/>
<path style=" stroke:none;fill-rule:nonzero;fill:rgb(89.399719%,25.498962%,54.899597%);fill-opacity:1;" d="M 513.613281 142.488281 C 511.9375 141.441406 510.515625 140.921875 509.398438 140.921875 C 508.199219 140.921875 507.148438 141.617188 506.261719 143.019531 C 505.382813 144.414063 504.9375 146.078125 504.9375 148 C 504.9375 149.535156 505.46875 150.304688 506.523438 150.304688 C 507.667969 150.304688 509.878906 147.914063 513.121094 143.125 C 513.15625 143.0625 513.320313 142.847656 513.613281 142.488281 M 513.046875 145.226563 C 512.011719 147.242188 510.742188 148.960938 509.246094 150.367188 C 507.742188 151.789063 506.425781 152.496094 505.304688 152.496094 C 504.445313 152.496094 503.757813 152.128906 503.257813 151.414063 C 502.738281 150.6875 502.496094 149.738281 502.496094 148.53125 C 502.496094 146.15625 503.257813 144.046875 504.785156 142.230469 C 506.308594 140.421875 508.0625 139.515625 510.058594 139.515625 C 511.277344 139.515625 512.589844 139.867188 514.007813 140.589844 C 514.222656 139.875 515.074219 139.519531 516.566406 139.519531 C 516.664063 139.519531 516.816406 139.527344 517.042969 139.535156 C 516.585938 140.203125 516.21875 141.109375 515.988281 142.257813 L 515.773438 143.222656 C 515.546875 144.316406 515.441406 145.578125 515.441406 147.019531 C 515.441406 148.699219 515.839844 149.53125 516.664063 149.53125 C 517.527344 149.53125 518.722656 148.84375 520.226563 147.464844 C 521.722656 146.09375 523.199219 144.339844 524.667969 142.210938 L 525.609375 142.828125 C 524.113281 145.34375 522.421875 147.441406 520.503906 149.128906 C 518.597656 150.804688 516.945313 151.640625 515.574219 151.640625 C 513.855469 151.640625 512.980469 150.269531 512.980469 147.527344 C 512.980469 146.957031 513.003906 146.1875 513.046875 145.226563 "/>
<path style=" stroke:none;fill-rule:evenodd;fill:rgb(89.399719%,25.498962%,54.899597%);fill-opacity:1;" d="M 0.0195313 0.152344 L 8.828125 0.152344 L 8.828125 90.203125 C 8.828125 90.203125 8.828125 96.683594 14.636719 96.683594 L 61.964844 96.683594 L 61.964844 106.449219 L 10.492188 106.449219 C 10.492188 106.449219 0 106.4375 0 94.8125 C 0 83.335938 0.0195313 0.152344 0.0195313 0.152344 "/>
<path style=" stroke:none;fill-rule:evenodd;fill:rgb(89.399719%,25.498962%,54.899597%);fill-opacity:1;" d="M 12.183594 0.152344 L 20.964844 0.152344 L 20.964844 77.382813 C 20.964844 77.382813 20.339844 83.378906 26.058594 83.363281 C 54.355469 83.335938 61.921875 83.363281 61.921875 83.363281 L 61.921875 93.019531 L 17.339844 93.019531 C 17.339844 93.019531 12.140625 92.621094 12.183594 87.285156 C 12.21875 83.503906 12.183594 0.152344 12.183594 0.152344 "/>
<path style=" stroke:none;fill-rule:evenodd;fill:rgb(89.399719%,25.498962%,54.899597%);fill-opacity:1;" d="M 24.277344 0.152344 L 33.105469 0.152344 L 33.121094 65.484375 C 33.121094 65.484375 32.613281 69.933594 36.808594 69.933594 L 61.964844 69.933594 L 61.921875 79.628906 L 28.039063 79.628906 C 28.039063 79.628906 24.277344 78.878906 24.277344 74.367188 "/>
<path style=" stroke:none;fill-rule:evenodd;fill:rgb(89.399719%,25.498962%,54.899597%);fill-opacity:1;" d="M 36.414063 0.152344 L 45.253906 0.152344 L 45.253906 52.878906 C 45.253906 52.878906 44.695313 56.613281 48.546875 56.613281 L 61.964844 56.613281 L 61.964844 66.265625 L 41.546875 66.265625 C 37.910156 66.265625 36.414063 65.164063 36.414063 61.449219 "/>
<path style=" stroke:none;fill-rule:evenodd;fill:rgb(89.399719%,25.498962%,54.899597%);fill-opacity:1;" d="M 110.410156 106.332031 L 101.59375 106.332031 L 101.640625 16.277344 C 101.640625 16.277344 101.640625 9.796875 95.828125 9.796875 C 90.386719 9.796875 48.507813 9.785156 48.507813 9.785156 L 48.507813 -0.00390625 L 99.976563 0.03125 C 99.976563 0.03125 110.464844 0.0625 110.464844 11.667969 C 110.449219 23.144531 110.410156 106.332031 110.410156 106.332031 "/>
<path style=" stroke:none;fill-rule:evenodd;fill:rgb(89.399719%,25.498962%,54.899597%);fill-opacity:1;" d="M 98.238281 106.332031 L 89.457031 106.332031 L 89.484375 29.101563 C 89.484375 29.101563 90.09375 23.097656 84.378906 23.117188 C 56.109375 23.132813 48.535156 23.078125 48.535156 23.078125 L 48.546875 13.449219 L 93.117188 13.464844 C 93.117188 13.464844 98.328125 13.859375 98.285156 19.195313 C 98.253906 22.980469 98.238281 106.332031 98.238281 106.332031 "/>
<path style=" stroke:none;fill-rule:evenodd;fill:rgb(89.399719%,25.498962%,54.899597%);fill-opacity:1;" d="M 86.144531 106.332031 L 77.300781 106.316406 L 77.335938 41 C 77.335938 41 77.835938 36.550781 73.644531 36.550781 C 66.144531 36.550781 48.484375 36.535156 48.484375 36.535156 L 48.535156 26.832031 L 82.410156 26.847656 C 82.410156 26.847656 86.179688 27.601563 86.179688 32.101563 C 86.179688 36.230469 86.144531 106.332031 86.144531 106.332031 "/>
<path style=" stroke:none;fill-rule:evenodd;fill:rgb(89.399719%,25.498962%,54.899597%);fill-opacity:1;" d="M 73.996094 106.316406 L 65.167969 106.316406 L 65.203125 53.597656 C 65.203125 53.597656 65.75 49.855469 61.902344 49.855469 L 48.484375 49.855469 L 48.484375 40.203125 L 68.902344 40.214844 C 72.546875 40.214844 74.042969 41.316406 74.042969 45.019531 C 74.042969 49.078125 73.996094 106.316406 73.996094 106.316406 "/>
<path style=" stroke:none;fill-rule:evenodd;fill:rgb(89.399719%,25.498962%,54.899597%);fill-opacity:1;" d="M 199.859375 32.210938 L 208.867188 32.210938 L 208.867188 22.078125 L 199.859375 22.078125 Z M 199.859375 32.210938 "/>
<path style=" stroke:none;fill-rule:evenodd;fill:rgb(89.399719%,25.498962%,54.899597%);fill-opacity:1;" d="M 199.859375 106.449219 L 208.867188 106.449219 L 208.867188 44.179688 L 199.859375 44.179688 Z M 199.859375 106.449219 "/>
<path style=" stroke:none;fill-rule:evenodd;fill:rgb(89.399719%,25.498962%,54.899597%);fill-opacity:1;" d="M 519.3125 106.449219 L 528.339844 106.449219 L 528.339844 21.96875 L 519.3125 21.96875 Z M 519.3125 106.449219 "/>
<path style=" stroke:none;fill-rule:evenodd;fill:rgb(89.399719%,25.498962%,54.899597%);fill-opacity:1;" d="M 259.199219 44.179688 L 241.027344 94.300781 L 222.855469 44.179688 L 212.5625 44.179688 L 235.144531 106.449219 L 246.910156 106.449219 L 269.488281 44.179688 "/>
<path style=" stroke:none;fill-rule:evenodd;fill:rgb(89.399719%,25.498962%,54.899597%);fill-opacity:1;" d="M 174.410156 96.550781 C 171.375 96.550781 169.074219 93.871094 169.074219 90.53125 L 169.074219 22.078125 L 160.050781 22.078125 L 160.050781 92.144531 C 160.050781 100.019531 165.734375 106.386719 172.921875 106.386719 L 196.582031 106.386719 L 196.582031 96.550781 "/>
<path style=" stroke:none;fill-rule:evenodd;fill:rgb(89.399719%,25.498962%,54.899597%);fill-opacity:1;" d="M 345.46875 54.214844 C 342.433594 54.214844 340.132813 56.898438 340.132813 60.238281 L 340.132813 106.6875 L 331.109375 106.6875 L 331.109375 58.59375 C 331.109375 50.75 336.789063 44.367188 343.972656 44.367188 L 353.460938 44.367188 L 353.460938 54.214844 "/>
<path style=" stroke:none;fill-rule:evenodd;fill:rgb(89.399719%,25.498962%,54.899597%);fill-opacity:1;" d="M 276.183594 66.871094 C 279.191406 57 287.46875 50.679688 296.554688 50.679688 C 305.644531 50.679688 313.90625 57 316.90625 66.871094 Z M 326.347656 76.019531 L 326.347656 74.105469 C 326.347656 56.148438 312.980469 41.554688 296.554688 41.554688 C 280.136719 41.554688 266.792969 56.148438 266.792969 74.105469 C 266.792969 92.050781 280.136719 106.648438 296.554688 106.648438 C 310.414063 106.648438 322.246094 96.46875 325.496094 81.820313 L 316.753906 81.820313 C 313.753906 91.203125 305.671875 97.515625 296.554688 97.515625 C 285.484375 97.515625 276.296875 88.394531 275.207031 76.019531 "/>
<path style=" stroke:none;fill-rule:evenodd;fill:rgb(89.399719%,25.498962%,54.899597%);fill-opacity:1;" d="M 484.761719 97.164063 C 473.148438 97.164063 463.679688 86.816406 463.679688 74.105469 C 463.679688 61.382813 473.148438 51.035156 484.761719 51.035156 C 496.398438 51.035156 505.867188 61.382813 505.867188 74.105469 C 505.867188 86.816406 496.398438 97.164063 484.761719 97.164063 M 433.53125 97.164063 C 421.917969 97.164063 412.449219 86.816406 412.449219 74.105469 C 412.449219 61.382813 421.917969 51.035156 433.53125 51.035156 C 445.167969 51.035156 454.636719 61.382813 454.636719 74.105469 C 454.636719 86.816406 445.167969 97.164063 433.53125 97.164063 M 382.316406 97.164063 C 370.6875 97.164063 361.222656 86.816406 361.222656 74.105469 C 361.222656 61.382813 370.6875 51.035156 382.316406 51.035156 C 393.925781 51.035156 403.394531 61.382813 403.394531 74.105469 C 403.394531 86.816406 393.925781 97.164063 382.316406 97.164063 M 484.761719 41.199219 C 473.949219 41.199219 464.457031 47.449219 459.148438 56.835938 C 453.847656 47.449219 444.359375 41.199219 433.53125 41.199219 C 422.707031 41.199219 413.226563 47.449219 407.933594 56.835938 C 402.617188 47.449219 393.128906 41.199219 382.316406 41.199219 C 365.683594 41.199219 352.203125 55.933594 352.203125 74.105469 L 352.203125 127.566406 L 361.3125 127.566406 L 361.3125 97.65625 C 366.722656 103.429688 374.132813 106.996094 382.316406 106.996094 C 393.128906 106.996094 402.617188 100.746094 407.933594 91.367188 C 413.226563 100.746094 422.707031 106.996094 433.53125 106.996094 C 444.359375 106.996094 453.847656 100.746094 459.148438 91.367188 C 464.457031 100.746094 473.949219 106.996094 484.761719 106.996094 C 501.394531 106.996094 514.863281 92.269531 514.863281 74.105469 C 514.863281 55.933594 501.394531 41.199219 484.761719 41.199219 "/>
<g clip-path="url(#clip2)" clip-rule="nonzero">
<path style=" stroke:none;fill-rule:evenodd;fill:rgb(89.399719%,25.498962%,54.899597%);fill-opacity:1;" d="M 539.382813 28.480469 C 540.339844 28.480469 540.984375 28.078125 540.984375 27.191406 C 540.984375 26.429688 540.414063 25.945313 539.609375 25.945313 L 537.578125 25.945313 L 537.578125 28.480469 Z M 536.332031 24.78125 L 539.742188 24.78125 C 541.667969 24.78125 542.304688 26.097656 542.304688 27.011719 C 542.304688 28.386719 541.417969 29.367188 540.09375 29.453125 L 540.09375 29.5 C 540.769531 29.75 541.253906 30.464844 541.898438 31.601563 L 542.839844 33.25 L 541.316406 33.25 L 540.628906 31.925781 C 539.652344 30.015625 539.285156 29.667969 538.3125 29.667969 L 537.578125 29.667969 L 537.578125 33.25 L 536.332031 33.25 Z M 539.472656 22.335938 C 536.144531 22.335938 533.464844 25.265625 533.464844 28.878906 C 533.464844 32.515625 536.144531 35.46875 539.472656 35.46875 C 542.8125 35.46875 545.507813 32.515625 545.507813 28.878906 C 545.507813 25.265625 542.8125 22.335938 539.472656 22.335938 M 539.472656 36.765625 C 535.492188 36.765625 532.289063 33.25 532.289063 28.878906 C 532.289063 24.53125 535.492188 21.023438 539.472656 21.023438 C 543.464844 21.023438 546.679688 24.53125 546.679688 28.878906 C 546.679688 33.25 543.464844 36.765625 539.472656 36.765625 "/>
</g>
<path style=" stroke:none;fill-rule:evenodd;fill:rgb(89.399719%,25.498962%,54.899597%);fill-opacity:1;" d="M 532.699219 136.195313 C 533.15625 136.195313 533.476563 135.988281 533.476563 135.558594 C 533.476563 135.183594 533.207031 134.941406 532.804688 134.941406 L 531.800781 134.941406 L 531.800781 136.195313 Z M 531.1875 134.367188 L 532.867188 134.367188 C 533.816406 134.367188 534.136719 135.023438 534.136719 135.464844 C 534.136719 136.140625 533.691406 136.625 533.054688 136.667969 L 533.054688 136.695313 C 533.371094 136.8125 533.613281 137.164063 533.933594 137.726563 L 534.390625 138.539063 L 533.640625 138.539063 L 533.308594 137.878906 C 532.824219 136.941406 532.636719 136.769531 532.164063 136.769531 L 531.800781 136.769531 L 531.800781 138.539063 L 531.1875 138.539063 Z M 532.726563 133.160156 C 531.097656 133.160156 529.789063 134.605469 529.789063 136.386719 C 529.789063 138.171875 531.097656 139.625 532.726563 139.625 C 534.378906 139.625 535.699219 138.171875 535.699219 136.386719 C 535.699219 134.605469 534.378906 133.160156 532.726563 133.160156 M 532.726563 140.269531 C 530.78125 140.269531 529.191406 138.539063 529.191406 136.386719 C 529.191406 134.253906 530.78125 132.519531 532.726563 132.519531 C 534.695313 132.519531 536.28125 134.253906 536.28125 136.386719 C 536.28125 138.539063 534.695313 140.269531 532.726563 140.269531 "/>
</g>
</svg>
